<svg width="29" height="19" viewBox="0 0 29 19" fill="none" xmlns="http://www.w3.org/2000/svg">
<path d="M23.7453 10.8278C23.9178 10.8058 24.0488 10.8314 24.1369 10.9048C24.2299 10.9715 24.2831 11.0555 24.296 11.1566C24.3082 11.2518 24.2761 11.3319 24.1996 11.3961C24.1291 11.4596 24.0345 11.5047 23.917 11.5319C23.8056 11.5582 23.6907 11.5605 23.5732 11.5393C23.455 11.5121 23.3603 11.4545 23.2887 11.3671C23.275 11.26 23.3056 11.1501 23.3818 11.0376C23.4573 10.9191 23.5788 10.8492 23.7453 10.8278Z" fill="#FF0B55" fill-opacity="0.8"/>
<path fill-rule="evenodd" clip-rule="evenodd" d="M27.7422 4.38936C28.4216 4.26964 29.0156 4.85805 28.9025 5.53858L27.3819 14.6769C27.3108 15.1033 26.9734 15.4359 26.546 15.501L10.103 18.0079C8.78507 18.2089 7.64292 17.0891 7.81864 15.7676L8.89172 7.71143L27.7422 4.38936ZM20.1067 10.5501C19.8091 10.5882 19.6189 10.7121 19.5369 10.9222C19.455 11.1323 19.4321 11.4227 19.4674 11.793C19.5087 12.1628 19.5621 12.6067 19.6284 13.1244C19.6672 13.4278 19.6936 13.6783 19.7068 13.8762C19.7253 14.0674 19.7052 14.2158 19.646 14.3202C19.5927 14.4236 19.4764 14.4868 19.2981 14.5097C19.2327 14.518 19.1459 14.5534 19.039 14.6155C18.9381 14.6769 18.852 14.7636 18.7817 14.8753C18.7064 14.9937 18.6805 15.142 18.7033 15.3201C18.733 15.5522 18.8471 15.7169 19.0468 15.8123C19.2533 15.9129 19.5205 15.9416 19.8479 15.8996C20.1871 15.8562 20.4774 15.7401 20.7195 15.5518C20.9621 15.3696 21.1386 15.1418 21.2487 14.8678C21.3543 14.6063 21.404 14.3304 21.3972 14.0409C21.3956 13.7448 21.3669 13.3797 21.3113 12.9454C21.2435 12.4157 21.1738 11.9643 21.102 11.5924C21.0302 11.2208 20.9194 10.9448 20.7695 10.7644C20.6253 10.5833 20.4042 10.512 20.1067 10.5501ZM14.4992 8.67235C14.1719 8.71426 13.935 8.87232 13.7885 9.14514C13.6421 9.41789 13.5654 9.76909 13.56 10.1991C13.5598 10.6225 13.6051 11.0891 13.6944 11.5979C13.5036 11.2413 13.3243 10.9038 13.1567 10.5866C12.9891 10.2693 12.8204 9.99103 12.6508 9.75264C12.4804 9.50838 12.2991 9.32584 12.1082 9.20513C11.9226 9.07786 11.7165 9.02896 11.4905 9.05789C11.1634 9.09981 10.908 9.22914 10.7241 9.44604C10.5402 9.66313 10.408 9.93131 10.3279 10.25C10.2469 10.5628 10.2048 10.8924 10.2006 11.2377C10.1964 11.5827 10.2136 11.9068 10.2524 12.2101C10.2829 12.4482 10.3288 12.7153 10.3907 13.0098C10.4518 13.2981 10.5276 13.5846 10.6184 13.8691C10.7153 14.1531 10.8242 14.4122 10.9447 14.6447C11.071 14.8763 11.2124 15.0575 11.3681 15.1887C11.53 15.3192 11.7035 15.3724 11.888 15.3488C12.1438 15.316 12.3322 15.2258 12.4523 15.0774C12.5715 14.9231 12.642 14.7205 12.6643 14.4698C12.6926 14.2182 12.6881 13.9219 12.6506 13.5819C12.6123 13.236 12.5643 12.858 12.5058 12.4481C12.6787 12.7587 12.8453 13.0707 13.0063 13.3828C13.1672 13.6947 13.3334 13.979 13.5053 14.2351C13.6823 14.4844 13.871 14.6807 14.0707 14.8244C14.2757 14.9614 14.5062 15.0135 14.762 14.9809C15.0476 14.9443 15.2826 14.8386 15.4659 14.6639C15.6551 14.4885 15.8059 14.2696 15.9174 14.0074C16.029 13.7452 16.1073 13.463 16.1533 13.1608C16.1993 12.8585 16.2216 12.5589 16.22 12.2627C16.2183 11.9668 16.2022 11.6969 16.171 11.453C16.1321 11.1495 16.0732 10.8299 15.9941 10.4953C15.9209 10.1599 15.8205 9.84904 15.6931 9.56295C15.565 9.271 15.4025 9.04071 15.2057 8.8724C15.0147 8.7033 14.7789 8.63656 14.4992 8.67235ZM17.5883 10.6993C17.3504 10.7298 17.1808 10.8218 17.0793 10.9739C16.9772 11.12 16.9233 11.3384 16.9183 11.6293C16.9191 11.9195 16.948 12.2882 17.0052 12.7345C17.0682 13.1799 17.136 13.5431 17.2083 13.8241C17.2857 14.0984 17.3896 14.2972 17.5201 14.4196C17.6567 14.5412 17.8446 14.5862 18.0827 14.5557C18.3206 14.5252 18.4903 14.4342 18.5918 14.2821C18.6932 14.13 18.747 13.9116 18.7529 13.6267C18.7579 13.3357 18.729 12.967 18.6659 12.5214C18.6088 12.0753 18.541 11.7122 18.4629 11.4319C18.3846 11.1516 18.2771 10.9531 18.1413 10.8374C18.0107 10.7151 17.8262 10.6688 17.5883 10.6993ZM23.6224 9.58193C23.1941 9.63677 22.8259 9.78419 22.5179 10.0231C22.2157 10.2614 21.9898 10.5569 21.8413 10.9086C21.6988 11.2595 21.6521 11.6286 21.7016 12.0154C21.7527 12.4137 21.8904 12.7557 22.1142 13.0414C22.3435 13.3205 22.6363 13.5288 22.9923 13.6647C23.3535 13.7938 23.7576 13.8292 24.2038 13.7722C24.5906 13.7226 24.8842 13.6492 25.0834 13.5511C25.2817 13.4471 25.413 13.3366 25.4766 13.2196C25.5462 13.1019 25.571 12.9895 25.5514 12.8832C25.5287 12.7531 25.454 12.6656 25.3274 12.6213C25.2008 12.577 25.0475 12.588 24.8684 12.6533C24.7234 12.702 24.5595 12.7443 24.3767 12.7798C24.1989 12.8086 24.0224 12.804 23.8481 12.7659C23.6792 12.7209 23.53 12.6187 23.4008 12.4599C23.5498 12.4893 23.7304 12.502 23.9418 12.4992C24.1522 12.4903 24.3688 12.4565 24.5911 12.3978C24.8133 12.3391 25.0169 12.2527 25.2017 12.1384C25.3919 12.0172 25.5385 11.8621 25.6413 11.6735C25.7434 11.479 25.7767 11.2449 25.7417 10.9713C25.7066 10.6976 25.5964 10.4487 25.4105 10.2246C25.2298 9.99375 24.9862 9.81638 24.6801 9.69227C24.3738 9.56816 24.0212 9.53089 23.6224 9.58193ZM17.2499 8.05686C17.0538 8.08203 16.8819 8.15565 16.7343 8.27715C16.5918 8.39218 16.4829 8.53695 16.4083 8.70983C16.3397 8.8818 16.3178 9.06886 16.3437 9.27101C16.3825 9.57453 16.5178 9.82097 16.7476 10.0093C16.9765 10.1914 17.237 10.2636 17.5284 10.2263C17.7187 10.2019 17.885 10.1324 18.0275 10.0175C18.1752 9.89579 18.2867 9.7481 18.3614 9.57522C18.4352 9.39647 18.4587 9.20578 18.4328 9.00354C18.4069 8.80126 18.336 8.62588 18.2202 8.47742C18.1045 8.329 17.9605 8.21715 17.7877 8.14253C17.62 8.06116 17.4403 8.03248 17.2499 8.05686ZM19.7286 7.73995C19.5322 7.7651 19.3598 7.83859 19.2121 7.96034C19.0697 8.07528 18.9615 8.21927 18.8869 8.39194C18.8182 8.56406 18.7965 8.75175 18.8224 8.95409C18.8613 9.25744 18.9956 9.50325 19.2252 9.69153C19.4542 9.87388 19.7146 9.9468 20.0062 9.90952C20.1966 9.88513 20.3635 9.81469 20.5061 9.69965C20.6535 9.57804 20.7645 9.431 20.8391 9.25841C20.9129 9.07966 20.9373 8.88887 20.9115 8.68663C20.8856 8.48443 20.8146 8.30894 20.699 8.16051C20.5832 8.01202 20.4383 7.90036 20.2654 7.82571C20.0977 7.74442 19.9189 7.71557 19.7286 7.73995Z" fill="#FF0B55" fill-opacity="0.8"/>
<path d="M2.81 7.28C1.95 7.28 1.32333 7.17667 0.93 6.97C0.536667 6.76333 0.283333 6.43333 0.17 5.98C0.0566668 5.52667 1.3958e-07 4.82 1.55494e-07 3.86C1.7163e-07 2.88667 0.0533335 2.16333 0.16 1.69C0.273334 1.21 0.523334 0.856666 0.91 0.63C1.30333 0.396666 1.92667 0.28 2.78 0.28C3.29333 0.28 3.81667 0.4 4.35 0.64C4.88333 0.873333 5.33333 1.26 5.7 1.8C6.06667 2.34 6.25 3.03 6.25 3.87C6.25 4.67667 6.06333 5.33667 5.69 5.85C5.31667 6.35667 4.86667 6.72333 4.34 6.95C3.81333 7.17 3.30333 7.28 2.81 7.28ZM2.19 5.52C2.40333 5.54667 2.55667 5.56 2.65 5.56C3.12333 5.56 3.49 5.43333 3.75 5.18C4.01 4.92667 4.14 4.57667 4.14 4.13C4.14 3.73 4.01333 3.42 3.76 3.2C3.50667 2.97333 3.15 2.86 2.69 2.86C2.51667 2.86 2.35 2.87333 2.19 2.9V5.52Z" fill="black"/>
<path d="M9.25805 7.28C8.76471 7.28 8.32805 7.18333 7.94805 6.99C7.56805 6.79667 7.27138 6.52667 7.05805 6.18C6.85138 5.82667 6.74805 5.43 6.74805 4.99C6.74805 4.55667 6.85138 4.15667 7.05805 3.79C7.27138 3.42333 7.56471 3.13 7.93805 2.91C8.31138 2.69 8.73471 2.58 9.20805 2.58C9.63471 2.58 10.0114 2.66667 10.338 2.84C10.6647 3.01333 10.9147 3.24333 11.088 3.53C11.2614 3.81 11.348 4.10333 11.348 4.41C11.348 4.91 11.158 5.27667 10.778 5.51C10.4047 5.73667 9.95805 5.85 9.43805 5.85C9.09138 5.85 8.79805 5.80667 8.55805 5.72C8.75805 6.04667 9.08805 6.21 9.54805 6.21C9.73471 6.21 9.93471 6.18667 10.148 6.14C10.228 6.12 10.3047 6.11 10.378 6.11C10.5247 6.11 10.6414 6.14667 10.728 6.22C10.8214 6.29333 10.868 6.39333 10.868 6.52C10.868 6.72667 10.7414 6.90667 10.488 7.06C10.2347 7.20667 9.82471 7.28 9.25805 7.28ZM8.58805 4.5C8.64805 4.59333 8.72805 4.66333 8.82805 4.71C8.93471 4.75 9.05138 4.77 9.17805 4.77C9.32471 4.77 9.45138 4.73667 9.55805 4.67C9.67138 4.60333 9.72805 4.51667 9.72805 4.41C9.72805 4.29 9.67805 4.18667 9.57805 4.1C9.48471 4.01333 9.34805 3.97 9.16805 3.97C8.98805 3.97 8.84471 4.02667 8.73805 4.14C8.63805 4.24667 8.58805 4.36667 8.58805 4.5Z" fill="black"/>
<path d="M13.5704 7.28C12.9837 7.28 12.5171 7.18333 12.1704 6.99C11.8237 6.79667 11.6504 6.54667 11.6504 6.24C11.6504 6.04 11.7171 5.88667 11.8504 5.78C11.9904 5.66667 12.1671 5.61 12.3804 5.61C12.5004 5.61 12.5971 5.62667 12.6704 5.66C12.7437 5.69333 12.8171 5.74 12.8904 5.8C12.9437 5.84667 12.9871 5.88 13.0204 5.9C13.0604 5.92 13.1071 5.93 13.1604 5.93C13.3004 5.93 13.3704 5.88 13.3704 5.78C13.3704 5.68667 13.3337 5.61667 13.2604 5.57C13.1871 5.51667 13.0604 5.45333 12.8804 5.38C12.7137 5.31333 12.6037 5.26667 12.5504 5.24C12.2437 5.09333 12.0171 4.92 11.8704 4.72C11.7237 4.52 11.6504 4.30667 11.6504 4.08C11.6504 3.82667 11.7404 3.58667 11.9204 3.36C12.1071 3.12667 12.3671 2.94 12.7004 2.8C13.0404 2.65333 13.4304 2.58 13.8704 2.58C14.2504 2.58 14.5937 2.63333 14.9004 2.74C15.2137 2.84667 15.4604 2.99333 15.6404 3.18C15.8204 3.36 15.9104 3.56 15.9104 3.78C15.9104 3.98667 15.8437 4.14333 15.7104 4.25C15.5837 4.35667 15.4104 4.41 15.1904 4.41C15.1037 4.41 15.0337 4.40333 14.9804 4.39C14.9337 4.37 14.8704 4.34 14.7904 4.3C14.7437 4.27333 14.6937 4.25 14.6404 4.23C14.5937 4.21 14.5404 4.2 14.4804 4.2C14.4271 4.2 14.3804 4.22 14.3404 4.26C14.3004 4.29333 14.2804 4.33667 14.2804 4.39C14.2804 4.49 14.3537 4.56333 14.5004 4.61C14.8871 4.73667 15.1971 4.89667 15.4304 5.09C15.6704 5.28333 15.7904 5.55 15.7904 5.89C15.7904 6.32333 15.5871 6.66333 15.1804 6.91C14.7804 7.15667 14.2437 7.28 13.5704 7.28Z" fill="black"/>
<path d="M17.2735 2.43C16.9468 2.43 16.6702 2.31333 16.4435 2.08C16.2168 1.84 16.1035 1.55 16.1035 1.21C16.1035 0.876667 16.2168 0.593334 16.4435 0.36C16.6702 0.12 16.9468 -5.41524e-09 17.2735 0C17.5935 5.30473e-09 17.8668 0.12 18.0935 0.36C18.3268 0.593334 18.4435 0.876667 18.4435 1.21C18.4435 1.55 18.3268 1.84 18.0935 2.08C17.8668 2.31333 17.5935 2.43 17.2735 2.43ZM17.2735 7.28C17.0002 7.28 16.7968 7.20333 16.6635 7.05C16.5368 6.89 16.4502 6.65333 16.4035 6.34C16.3635 6.02 16.3435 5.56667 16.3435 4.98C16.3435 4.48667 16.3668 4.09667 16.4135 3.81C16.4668 3.52333 16.5602 3.31 16.6935 3.17C16.8268 3.03 17.0202 2.96 17.2735 2.96C17.5468 2.96 17.7468 3.04 17.8735 3.2C18.0068 3.35333 18.0935 3.59 18.1335 3.91C18.1802 4.22333 18.2035 4.67333 18.2035 5.26C18.2035 5.75333 18.1768 6.14333 18.1235 6.43C18.0768 6.71667 17.9868 6.93 17.8535 7.07C17.7202 7.21 17.5268 7.28 17.2735 7.28Z" fill="black"/>
<path d="M20.1153 7.26C19.782 7.26 19.532 7.13667 19.3653 6.89C19.1986 6.64333 19.0853 6.28 19.0253 5.8C18.972 5.31333 18.9453 4.63667 18.9453 3.77C18.9453 2.93667 18.9653 2.28667 19.0053 1.82C19.052 1.35333 19.1586 0.98 19.3253 0.7C19.4986 0.42 19.7653 0.28 20.1253 0.28C20.4853 0.28 20.7486 0.42 20.9153 0.7C21.0886 0.98 21.1953 1.35333 21.2353 1.82C21.282 2.28667 21.3053 2.93667 21.3053 3.77C21.3053 4.59 21.2686 5.25333 21.1953 5.76C21.1286 6.26 21.0086 6.63667 20.8353 6.89C20.662 7.13667 20.422 7.26 20.1153 7.26Z" fill="black"/>
<path d="M24.1113 7.29C23.6313 7.29667 23.2013 7.19667 22.8213 6.99C22.448 6.78333 22.1547 6.5 21.9413 6.14C21.7347 5.77333 21.6247 5.36667 21.6113 4.92C21.6047 4.47333 21.708 4.07333 21.9213 3.72C22.1347 3.36667 22.4313 3.08667 22.8113 2.88C23.198 2.67333 23.6313 2.57 24.1113 2.57C24.578 2.57 24.998 2.67 25.3713 2.87C25.7513 3.07 26.0513 3.35 26.2713 3.71C26.4913 4.07 26.608 4.47333 26.6213 4.92C26.628 5.35333 26.5247 5.75 26.3113 6.11C26.098 6.46333 25.798 6.74667 25.4113 6.96C25.0313 7.17333 24.598 7.28333 24.1113 7.29ZM24.1413 5.83C24.3213 5.83 24.478 5.76 24.6113 5.62C24.7447 5.48 24.8113 5.31667 24.8113 5.13C24.8113 4.94333 24.7447 4.78333 24.6113 4.65C24.478 4.51 24.3213 4.44 24.1413 4.44C23.9613 4.44 23.8047 4.51 23.6713 4.65C23.538 4.78333 23.4713 4.94333 23.4713 5.13C23.4713 5.31667 23.538 5.48 23.6713 5.62C23.8047 5.76 23.9613 5.83 24.1413 5.83Z" fill="black"/>
<path d="M1.92 14.28C1.33333 14.28 0.866667 14.1833 0.52 13.99C0.173333 13.7967 -5.08369e-09 13.5467 0 13.24C3.31545e-09 13.04 0.0666667 12.8867 0.2 12.78C0.34 12.6667 0.516667 12.61 0.73 12.61C0.85 12.61 0.946667 12.6267 1.02 12.66C1.09333 12.6933 1.16667 12.74 1.24 12.8C1.29333 12.8467 1.33667 12.88 1.37 12.9C1.41 12.92 1.45667 12.93 1.51 12.93C1.65 12.93 1.72 12.88 1.72 12.78C1.72 12.6867 1.68333 12.6167 1.61 12.57C1.53667 12.5167 1.41 12.4533 1.23 12.38C1.06333 12.3133 0.953333 12.2667 0.9 12.24C0.593333 12.0933 0.366667 11.92 0.22 11.72C0.0733334 11.52 3.20493e-08 11.3067 3.58068e-08 11.08C4.00064e-08 10.8267 0.09 10.5867 0.27 10.36C0.456667 10.1267 0.716667 9.94 1.05 9.8C1.39 9.65333 1.78 9.58 2.22 9.58C2.6 9.58 2.94333 9.63333 3.25 9.74C3.56333 9.84667 3.81 9.99333 3.99 10.18C4.17 10.36 4.26 10.56 4.26 10.78C4.26 10.9867 4.19333 11.1433 4.06 11.25C3.93333 11.3567 3.76 11.41 3.54 11.41C3.45333 11.41 3.38333 11.4033 3.33 11.39C3.28333 11.37 3.22 11.34 3.14 11.3C3.09333 11.2733 3.04333 11.25 2.99 11.23C2.94333 11.21 2.89 11.2 2.83 11.2C2.77667 11.2 2.73 11.22 2.69 11.26C2.65 11.2933 2.63 11.3367 2.63 11.39C2.63 11.49 2.70333 11.5633 2.85 11.61C3.23667 11.7367 3.54667 11.8967 3.78 12.09C4.02 12.2833 4.14 12.55 4.14 12.89C4.14 13.3233 3.93667 13.6633 3.53 13.91C3.13 14.1567 2.59333 14.28 1.92 14.28Z" fill="black"/>
<path d="M7.07055 14.28C6.57721 14.28 6.14055 14.1833 5.76055 13.99C5.38055 13.7967 5.08388 13.5267 4.87055 13.18C4.66388 12.8267 4.56055 12.43 4.56055 11.99C4.56055 11.5567 4.66388 11.1567 4.87055 10.79C5.08388 10.4233 5.37721 10.13 5.75055 9.91C6.12388 9.69 6.54721 9.58 7.02055 9.58C7.44721 9.58 7.82388 9.66667 8.15055 9.84C8.47721 10.0133 8.72721 10.2433 8.90055 10.53C9.07388 10.81 9.16055 11.1033 9.16055 11.41C9.16055 11.91 8.97055 12.2767 8.59055 12.51C8.21721 12.7367 7.77055 12.85 7.25055 12.85C6.90388 12.85 6.61055 12.8067 6.37055 12.72C6.57055 13.0467 6.90055 13.21 7.36055 13.21C7.54721 13.21 7.74721 13.1867 7.96055 13.14C8.04055 13.12 8.11721 13.11 8.19055 13.11C8.33721 13.11 8.45388 13.1467 8.54055 13.22C8.63388 13.2933 8.68055 13.3933 8.68055 13.52C8.68055 13.7267 8.55388 13.9067 8.30055 14.06C8.04721 14.2067 7.63721 14.28 7.07055 14.28ZM6.40055 11.5C6.46055 11.5933 6.54055 11.6633 6.64055 11.71C6.74721 11.75 6.86388 11.77 6.99055 11.77C7.13721 11.77 7.26388 11.7367 7.37055 11.67C7.48388 11.6033 7.54055 11.5167 7.54055 11.41C7.54055 11.29 7.49055 11.1867 7.39055 11.1C7.29721 11.0133 7.16055 10.97 6.98055 10.97C6.80055 10.97 6.65721 11.0267 6.55055 11.14C6.45055 11.2467 6.40055 11.3667 6.40055 11.5Z" fill="black"/>
</svg>
